{
  "accessors": [
    {
      "bufferView": 1,
      "componentType": 5126,
      "count": 45025,
      "max": [
        215.21817016601563,
        55.59001922607422,
        127.47801971435547
      ],
      "min": [
        -101.92668914794922,
        -14.323774337768555,
        -127.47801971435547
      ],
      "type": "VEC3"
    },
    {
      "bufferView": 1,
      "byteOffset": 540300,
      "componentType": 5126,
      "count": 45025,
      "max": [
        1.0,
        1.0,
        1.0
      ],
      "min": [
        -1.0,
        -1.0,
        -1.0
      ],
      "type": "VEC3"
    },
    {
      "bufferView": 0,
      "componentType": 5125,
      "count": 269424,
      "type": "SCALAR"
    },
    {
      "bufferView": 1,
      "byteOffset": 1080600,
      "componentType": 5126,
      "count": 35312,
      "max": [
        99.26473999023438,
        196.64761352539063,
        99.49818420410156
      ],
      "min": [
        -99.2647476196289,
        -15.21147346496582,
        -99.28611755371094
      ],
      "type": "VEC3"
    },
    {
      "bufferView": 1,
      "byteOffset": 1504344,
      "componentType": 5126,
      "count": 35312,
      "max": [
        1.0,
        0.9999986886978149,
        1.0
      ],
      "min": [
        -1.0,
        -1.0,
        -1.0
      ],
      "type": "VEC3"
    },
    {
      "bufferView": 0,
      "byteOffset": 1077696,
      "componentType": 5125,
      "count": 200448,
      "type": "SCALAR"
    },
    {
      "bufferView": 1,
      "byteOffset": 1928088,
      "componentType": 5126,
      "count": 8978,
      "max": [
        89.04437255859375,
        89.88179779052734,
        89.04397583007813
      ],
      "min": [
        -89.04438018798828,
        -89.88179779052734,
        -89.04397583007813
      ],
      "type": "VEC3"
    },
    {
      "bufferView": 1,
      "byteOffset": 2035824,
      "componentType": 5126,
      "count": 8978,
      "max": [
        1.0,
        1.0,
        1.0
      ],
      "min": [
        -1.0,
        -1.0,
        -1.0
      ],
      "type": "VEC3"
    },
    {
      "bufferView": 0,
      "byteOffset": 1879488,
      "componentType": 5125,
      "count": 53856,
      "type": "SCALAR"
    }
  ],
  "asset": {
    "extras": {
      "author": "athirn (https://sketchfab.com/athirn)",
      "license": "CC-BY-4.0 (http://creativecommons.org/licenses/by/4.0/)",
      "source": "https://sketchfab.com/3d-models/shader-ball-68d28c0dd48745fea61fb4e7708217ea",
      "title": "Shader Ball"
    },
    "generator": "Sketchfab-12.67.0",
    "version": "2.0"
  },
  "bufferViews": [
    {
      "buffer": 0,
      "byteLength": 2094912,
      "name": "floatBufferViews",
      "target": 34963
    },
    {
      "buffer": 0,
      "byteLength": 2143560,
      "byteOffset": 2094912,
      "byteStride": 12,
      "name": "floatBufferViews",
      "target": 34962
    }
  ],
  "buffers": [
    {
      "byteLength": 4238472,
      "uri": "scene.bin"
    }
  ],
  "materials": [
    {
      "doubleSided": true,
      "name": "material_0",
      "pbrMetallicRoughness": {
        "metallicFactor": 0.0,
        "roughnessFactor": 0.6
      }
    },
    {
      "name": "material",
      "pbrMetallicRoughness": {
        "baseColorFactor": [
          0.315,
          0.3325,
          0.35,
          1.0
        ]
      }
    }
  ],
  "meshes": [
    {
      "name": "Object_0",
      "primitives": [
        {
          "attributes": {
            "NORMAL": 1,
            "POSITION": 0
          },
          "indices": 2,
          "material": 1,
          "mode": 4
        }
      ]
    },
    {
      "name": "Object_1",
      "primitives": [
        {
          "attributes": {
            "NORMAL": 4,
            "POSITION": 3
          },
          "indices": 5,
          "material": 0,
          "mode": 4
        }
      ]
    },
    {
      "name": "Object_2",
      "primitives": [
        {
          "attributes": {
            "NORMAL": 7,
            "POSITION": 6
          },
          "indices": 8,
          "material": 1,
          "mode": 4
        }
      ]
    }
  ],
  "nodes": [
    {
      "children": [
        1
      ],
      "matrix": [
        1.0,
        0.0,
        0.0,
        0.0,
        0.0,
        2.220446049250313e-16,
        -1.0,
        0.0,
        0.0,
        1.0,
        2.220446049250313e-16,
        0.0,
        0.0,
        0.0,
        0.0,
        1.0
      ],
      "name": "Sketchfab_model"
    },
    {
      "children": [
        2
      ],
      "name": "root"
    },
    {
      "children": [
        3,
        5,
        7
      ],
      "matrix": [
        1.0,
        0.0,
        0.0,
        0.0,
        0.0,
        2.220446049250313e-16,
        1.0,
        0.0,
        0.0,
        -1.0,
        2.220446049250313e-16,
        0.0,
        0.0,
        0.0,
        0.0,
        1.0
      ],
      "name": "GLTF_SceneRootNode"
    },
    {
      "children": [
        4
      ],
      "matrix": [
        1.0,
        0.0,
        0.0,
        0.0,
        0.0,
        1.0,
        0.0,
        0.0,
        0.0,
        0.0,
        1.0,
        0.0,
        -56.64573669433594,
        14.323774337768555,
        -3.572464793064577e-15,
        1.0
      ],
      "name": "Platform_0"
    },
    {
      "mesh": 0,
      "name": "Object_4"
    },
    {
      "children": [
        6
      ],
      "matrix": [
        1.0,
        0.0,
        0.0,
        0.0,
        0.0,
        1.0,
        0.0,
        0.0,
        0.0,
        0.0,
        1.0,
        0.0,
        0.0,
        48.57211685180664,
        0.0,
        1.0
      ],
      "name": "Ball Holder_1"
    },
    {
      "mesh": 1,
      "name": "Object_6"
    },
    {
      "children": [
        8
      ],
      "matrix": [
        1.0,
        0.0,
        0.0,
        0.0,
        0.0,
        1.0,
        0.0,
        0.0,
        0.0,
        0.0,
        1.0,
        0.0,
        0.0,
        142.66903686523438,
        0.0,
        1.0
      ],
      "name": "Inner Sphere_2"
    },
    {
      "mesh": 2,
      "name": "Object_8"
    }
  ],
  "scene": 0,
  "scenes": [
    {
      "name": "Sketchfab_Scene",
      "nodes": [
        0
      ]
    }
  ]
}
